# xmcd CD database file
#
# Track frame offsets:
#	150
#	5466
#	11117
#	34294
#	54193
#	70680
#	89483
#	129430
#	144702
#
# Disc length: 2284 seconds
#
# Revision: 0
# Processed by: cddbd v1.5.2PL0 Copyright (c) Steve Scherf et al.
# Submitted via: CDex 1.70beta3
#
DISCID=7408ea09
DTITLE=George Gruntz - Noon In Tunisia
DYEAR=1967
DGENRE=Jazz
TTITLE0=Salhé
TTITLE1=Is Tikhbar
TTITLE2=Ghitta
TTITLE3=Alaji
TTITLE4=Djerbi
TTITLE5=M'rabaa
TTITLE6=Buanuara
TTITLE7=Fazani
TTITLE8=Nameit
EXTD=YEAR: 1967
EXTT0=
EXTT1=
EXTT2=
EXTT3=
EXTT4=
EXTT5=
EXTT6=
EXTT7=
EXTT8=
PLAYORDER=
